<svg id="Capa_1" enable-background="new 0 0 512 512" height="512" viewBox="0 0 512 512" width="512" xmlns="http://www.w3.org/2000/svg"><g><path d="m477.73 376.791-114.789-114.79h-58.67v-123.635c31.412-6.887 55-34.916 55-68.366 0-38.599-31.401-70-70-70s-70.001 31.402-70.001 70c0 7.189 1.092 14.128 3.115 20.661l-98.118 55.6v103.421c-53.535 18.863-89.997 69.643-89.997 127.318 0 74.439 60.561 135 135 135s135-60.561 135-135c0-8.509-.797-16.867-2.322-24.995h23.712l40.854 40.855c-25.982 6.814-45.207 30.493-45.207 58.582 0 33.392 27.166 60.559 60.559 60.559s60.559-27.167 60.559-60.559c0-11.266-3.102-21.818-8.483-30.862zm-188.459-346.791c22.056 0 40 17.944 40 40 0 22.057-17.944 40.001-40 40.001-22.057 0-40.001-17.944-40.001-40.001 0-22.056 17.944-40 40.001-40zm-135.004 133.744 82.947-47.003c9.626 10.71 22.501 18.434 37.057 21.626v123.635h-34.188c-8.044-4.952-16.678-9.102-25.812-12.32v-49.679h-30v86.995c0 8.272-6.73 15.002-15.002 15.002s-15.001-6.73-15.001-15.002v-123.254zm15.003 168.256c24.813 0 45 20.187 45 45s-20.187 45-45 45-45-20.187-45-45 20.187-45 45-45zm0 150c-57.897 0-105-47.103-105-105 0-41.172 23.891-77.807 59.997-94.896v4.894c0 9.255 2.811 17.864 7.62 25.025-22.459 12.972-37.617 37.23-37.617 64.977 0 41.355 33.645 75 75 75s75-33.645 75-75c0-27.748-15.159-52.007-37.619-64.979 4.808-7.16 7.619-15.769 7.619-25.023v-4.896c36.108 17.089 60 53.725 60 94.898.001 57.897-47.102 105-105 105zm123.319-159.995c-4.81-10.792-11.002-20.877-18.388-30.003h76.314l84.789 84.79-21.216 21.216-76.002-76.002h-45.497zm89.277 159.995c-16.85 0-30.559-13.708-30.559-30.559s13.709-30.559 30.559-30.559 30.559 13.708 30.559 30.559-13.709 30.559-30.559 30.559z"/></g></svg>